<?xml version="1.0" encoding="utf-8"?>
<!-- Generator: Adobe Illustrator 18.0.0, SVG Export Plug-In . SVG Version: 6.00 Build 0)  -->
<!DOCTYPE svg PUBLIC "-//W3C//DTD SVG 1.1//EN" "http://www.w3.org/Graphics/SVG/1.1/DTD/svg11.dtd">
<svg version="1.1" id="Capa_1" xmlns="http://www.w3.org/2000/svg" xmlns:xlink="http://www.w3.org/1999/xlink" x="0px" y="0px"
	 viewBox="0 0 644.9 141.6" enable-background="new 0 0 644.9 141.6" xml:space="preserve">
<g>
	<g>
		<g>
			<path fill="#3B3B3A" stroke="#3B3B3A" stroke-width="1.8026" stroke-miterlimit="10" d="M206,93.2c-3.6-1.3-7.1-3.5-10.4-6.5
				c-1.4-1.2-2-2.5-2-4c0-1.2,0.5-2.2,1.4-3.2c0.9-0.9,2-1.4,3.2-1.4c1.1,0,2,0.4,2.8,1.1c2.6,2.4,5.3,4.2,8,5.3
				c2.7,1.1,5.9,1.7,9.4,1.7c4.1,0,7.5-0.9,10.3-2.8c2.8-1.9,4.2-4.2,4.2-7.1c-0.1-3.4-1.5-6-4.2-7.8c-2.8-1.8-6.9-3.4-12.6-4.6
				c-6.7-1.4-11.8-3.6-15.4-6.7c-3.6-3.1-5.4-7.4-5.4-12.9c0-3.8,1-7.2,3-10c2-2.9,4.8-5.1,8.3-6.6c3.6-1.6,7.6-2.3,12-2.3
				c4,0,7.8,0.6,11.4,1.9c3.6,1.3,6.4,3,8.6,5.1c1.5,1.3,2.2,2.7,2.2,4.2c0,1.2-0.4,2.2-1.3,3.1c-0.9,0.9-1.9,1.4-3.2,1.4
				c-0.9,0-1.7-0.3-2.2-0.8c-1.7-1.7-4-3.1-7-4.3c-3-1.2-5.8-1.7-8.5-1.7c-4.3,0-7.8,0.9-10.3,2.7c-2.6,1.8-3.8,4.1-3.8,7
				c0,3.2,1.3,5.6,3.8,7.3c2.6,1.7,6.4,3.1,11.4,4.3c5,1.1,9.2,2.4,12.4,3.9c3.2,1.5,5.7,3.6,7.4,6.2c1.7,2.7,2.6,6.1,2.6,10.4
				c0,3.8-1.1,7.1-3.2,10c-2.1,2.9-5,5.2-8.6,6.8c-3.6,1.6-7.6,2.4-11.9,2.4C213.8,95.2,209.6,94.6,206,93.2z"/>
			<path fill="#3B3B3A" stroke="#3B3B3A" stroke-width="1.8026" stroke-miterlimit="10" d="M294.5,44.7c0.9,0.9,1.3,2,1.3,3.3v25.8
				c0,6.7-1.9,12-5.6,15.7c-3.7,3.7-9,5.6-15.8,5.6c-6.7,0-11.9-1.9-15.6-5.6c-3.7-3.7-5.5-8.9-5.5-15.7V48c0-1.3,0.4-2.4,1.3-3.3
				c0.9-0.9,2-1.4,3.3-1.4c1.4,0,2.5,0.5,3.3,1.4c0.9,0.9,1.3,2,1.3,3.3v25.8c0,8.5,4,12.7,11.9,12.7c3.9,0,7-1.1,9-3.2
				c2.1-2.1,3.1-5.3,3.1-9.5V48c0-1.3,0.4-2.4,1.3-3.3c0.9-0.9,2-1.4,3.3-1.4C292.5,43.4,293.6,43.8,294.5,44.7z"/>
			<path fill="#3B3B3A" stroke="#3B3B3A" stroke-width="1.8026" stroke-miterlimit="10" d="M347.6,89.8c0,1.3-0.5,2.4-1.5,3.3
				c-1,0.9-2,1.4-3.2,1.4c-1.5,0-2.8-0.7-3.8-2l-13-16.4l-12.8,16.4c-0.5,0.6-1,1.1-1.7,1.5c-0.6,0.3-1.3,0.5-2,0.5
				c-1.1,0-2.1-0.4-3.1-1.2c-0.9-0.8-1.4-1.8-1.4-2.9c0-1.2,0.4-2.1,1.1-2.9l14.6-18.2l-14.9-18.8c-0.6-0.8-1-1.7-1-2.7
				c0-1.3,0.5-2.4,1.4-3.3c0.9-0.9,2-1.4,3.3-1.4c1.6,0,2.8,0.6,3.8,1.9l13.3,16.8l12.5-16.7c1-1.4,2.2-2,3.7-2
				c1.2,0,2.3,0.4,3.1,1.2c0.8,0.8,1.3,1.8,1.3,2.9c0,1.2-0.4,2.2-1.1,3l-14.4,18.2l14.8,18.7C347.3,87.8,347.6,88.7,347.6,89.8z"/>
			<path fill="#95BC3B" d="M366,93.2c-3.6-1.3-7.1-3.5-10.4-6.5c-1.4-1.2-2-2.5-2-4c0-1.2,0.5-2.2,1.4-3.2c0.9-0.9,2-1.4,3.2-1.4
				c1.1,0,2,0.4,2.8,1.1c2.6,2.4,5.3,4.2,8,5.3c2.7,1.1,5.9,1.7,9.4,1.7c4.1,0,7.5-0.9,10.3-2.8c2.8-1.9,4.2-4.2,4.2-7.1
				c-0.1-3.4-1.5-6-4.2-7.8c-2.8-1.8-6.9-3.4-12.6-4.6c-6.7-1.4-11.8-3.6-15.4-6.7c-3.6-3.1-5.4-7.4-5.4-12.9c0-3.8,1-7.2,3-10
				c2-2.9,4.8-5.1,8.3-6.6c3.6-1.6,7.6-2.3,12-2.3c4,0,7.8,0.6,11.4,1.9c3.6,1.3,6.4,3,8.6,5.1c1.5,1.3,2.2,2.7,2.2,4.2
				c0,1.2-0.4,2.2-1.3,3.1c-0.9,0.9-1.9,1.4-3.2,1.4c-0.9,0-1.7-0.3-2.2-0.8c-1.7-1.7-4-3.1-7-4.3c-3-1.2-5.8-1.7-8.5-1.7
				c-4.3,0-7.8,0.9-10.3,2.7c-2.6,1.8-3.8,4.1-3.8,7c0,3.2,1.3,5.6,3.8,7.3c2.6,1.7,6.4,3.1,11.4,4.3c5,1.1,9.2,2.4,12.4,3.9
				c3.2,1.5,5.7,3.6,7.4,6.2c1.7,2.7,2.6,6.1,2.6,10.4c0,3.8-1.1,7.1-3.2,10c-2.1,2.9-5,5.2-8.6,6.8c-3.6,1.6-7.6,2.4-11.9,2.4
				C373.8,95.2,369.6,94.6,366,93.2z"/>
			<path fill="#95BC3B" d="M458,82.4c-2.3,4-5.4,7.2-9.3,9.4c-3.9,2.3-8.2,3.4-13,3.4c-4.7,0-9-1.1-13-3.4c-3.9-2.3-7-5.4-9.3-9.4
				c-2.3-4-3.4-8.5-3.4-13.6c0-5,1.1-9.6,3.4-13.7c2.3-4.1,5.4-7.2,9.3-9.5c3.9-2.3,8.2-3.4,13-3.4c4.7,0,9,1.1,13,3.4
				c3.9,2.3,7,5.4,9.3,9.5c2.3,4.1,3.4,8.6,3.4,13.7C461.4,73.9,460.3,78.4,458,82.4z M450,59.4c-1.5-2.7-3.4-4.9-5.9-6.4
				c-2.5-1.5-5.3-2.3-8.3-2.3c-3,0-5.8,0.8-8.3,2.3c-2.5,1.5-4.5,3.7-5.9,6.4c-1.5,2.8-2.2,5.9-2.2,9.4c0,3.4,0.7,6.5,2.2,9.2
				c1.5,2.7,3.4,4.8,5.9,6.4c2.5,1.5,5.3,2.3,8.3,2.3c3,0,5.8-0.8,8.3-2.3c2.5-1.5,4.5-3.6,5.9-6.4s2.2-5.8,2.2-9.2
				C452.2,65.3,451.5,62.2,450,59.4z"/>
			<path fill="#95BC3B" d="M480.7,92.9c-0.9,0.9-2,1.4-3.3,1.4c-1.3,0-2.4-0.5-3.3-1.4c-0.9-0.9-1.3-2-1.3-3.3V27.1
				c0-1.3,0.5-2.4,1.4-3.3c0.9-0.9,2-1.4,3.3-1.4c1.3,0,2.4,0.5,3.3,1.4c0.9,0.9,1.3,2,1.3,3.3v62.5C482.1,90.9,481.6,92,480.7,92.9
				z"/>
			<path fill="#95BC3B" d="M541.3,44c0.9,0.9,1.3,2,1.3,3.4v42.1c0,1.3-0.4,2.4-1.3,3.3c-0.9,0.9-2,1.4-3.3,1.4s-2.5-0.4-3.3-1.3
				c-0.8-0.9-1.3-2-1.3-3.3v-2.5c-1.7,2.3-4,4.2-6.9,5.8c-2.9,1.6-6.1,2.4-9.4,2.4c-4.4,0-8.4-1.1-12-3.4c-3.6-2.3-6.4-5.4-8.4-9.5
				c-2-4-3.1-8.6-3.1-13.6c0-5,1-9.6,3.1-13.6c2-4,4.8-7.2,8.4-9.5c3.6-2.3,7.5-3.4,11.7-3.4c3.4,0,6.6,0.7,9.6,2.1
				c2.9,1.4,5.3,3.2,7,5.4v-2.3c0-1.4,0.4-2.5,1.3-3.4c0.8-0.9,1.9-1.4,3.3-1.4S540.4,43.1,541.3,44z M526.2,84.3
				c2.4-1.6,4.2-3.7,5.5-6.4c1.3-2.7,2-5.8,2-9.2c0-3.4-0.7-6.4-2-9.1c-1.3-2.7-3.2-4.9-5.5-6.5c-2.4-1.6-5.1-2.4-8.1-2.4
				c-3,0-5.7,0.8-8.1,2.3c-2.4,1.6-4.2,3.7-5.5,6.4c-1.3,2.7-2,5.8-2,9.2c0,3.4,0.7,6.5,2,9.2c1.3,2.7,3.2,4.9,5.5,6.4
				c2.4,1.6,5.1,2.3,8.1,2.3C521.1,86.7,523.8,85.9,526.2,84.3z"/>
			<path fill="#95BC3B" d="M586,43.5c1.2,0.9,1.8,2,1.8,3.3c0,1.6-0.4,2.7-1.2,3.5c-0.8,0.8-1.8,1.2-3,1.2c-0.6,0-1.5-0.2-2.6-0.6
				c-1.4-0.5-2.4-0.7-3.2-0.7c-2,0-4,0.7-5.9,2.1c-1.9,1.4-3.5,3.3-4.7,5.7c-1.2,2.4-1.8,5.1-1.8,8.1v23.4c0,1.3-0.4,2.4-1.3,3.3
				c-0.9,0.9-2,1.4-3.3,1.4s-2.5-0.4-3.3-1.3c-0.8-0.9-1.3-2-1.3-3.3V48c0-1.3,0.4-2.4,1.3-3.3c0.9-0.9,2-1.4,3.3-1.4
				c1.4,0,2.5,0.5,3.3,1.4c0.9,0.9,1.3,2,1.3,3.3v5c1.4-3.2,3.6-5.7,6.4-7.7c2.8-2,6.1-3,9.7-3.1C583.3,42.2,584.7,42.7,586,43.5z"
				/>
		</g>
		<g>
			<linearGradient id="SVGID_1_" gradientUnits="userSpaceOnUse" x1="351.3497" y1="52.9767" x2="572.7454" y2="114.1358">
				<stop  offset="0" style="stop-color:#90B43E"/>
				<stop  offset="1" style="stop-color:#094479"/>
			</linearGradient>
			<path fill="url(#SVGID_1_)" d="M366.1,93.4c-3.6-1.3-7.1-3.5-10.4-6.5c-1.4-1.2-2-2.5-2-4c0-1.2,0.5-2.2,1.4-3.2
				c0.9-0.9,2-1.4,3.2-1.4c1.1,0,2,0.4,2.8,1.1c2.6,2.4,5.3,4.2,8,5.3c2.7,1.1,5.9,1.7,9.4,1.7c4.1,0,7.5-0.9,10.3-2.8
				c2.8-1.9,4.2-4.2,4.2-7.1c-0.1-3.4-1.5-6-4.2-7.8c-2.8-1.8-6.9-3.4-12.6-4.6c-6.7-1.4-11.8-3.6-15.4-6.7
				c-3.6-3.1-5.4-7.4-5.4-12.9c0-3.8,1-7.2,3-10c2-2.9,4.8-5.1,8.3-6.7c3.6-1.6,7.6-2.3,12-2.3c4,0,7.8,0.6,11.4,1.9
				c3.6,1.3,6.4,3,8.6,5.1c1.5,1.3,2.2,2.7,2.2,4.2c0,1.2-0.4,2.2-1.3,3.1c-0.9,0.9-1.9,1.4-3.2,1.4c-0.9,0-1.7-0.3-2.2-0.8
				c-1.7-1.7-4-3.1-7-4.3c-3-1.2-5.8-1.7-8.5-1.7c-4.3,0-7.8,0.9-10.3,2.7c-2.6,1.8-3.8,4.1-3.8,7c0,3.2,1.3,5.6,3.8,7.3
				c2.6,1.7,6.4,3.1,11.4,4.3c5,1.1,9.2,2.4,12.4,3.9c3.2,1.5,5.7,3.6,7.4,6.2c1.7,2.7,2.6,6.1,2.6,10.4c0,3.8-1.1,7.1-3.2,10
				c-2.1,2.9-5,5.2-8.6,6.8c-3.6,1.6-7.6,2.4-11.9,2.4C373.9,95.4,369.8,94.7,366.1,93.4z"/>
			<linearGradient id="SVGID_2_" gradientUnits="userSpaceOnUse" x1="353.2701" y1="46.0246" x2="574.6659" y2="107.1836">
				<stop  offset="0" style="stop-color:#90B43E"/>
				<stop  offset="1" style="stop-color:#094479"/>
			</linearGradient>
			<path fill="url(#SVGID_2_)" d="M458.2,82.5c-2.3,4-5.4,7.2-9.3,9.4c-3.9,2.3-8.2,3.4-13,3.4c-4.7,0-9-1.1-13-3.4
				c-3.9-2.3-7-5.4-9.3-9.4c-2.3-4-3.4-8.5-3.4-13.6c0-5,1.1-9.6,3.4-13.7c2.3-4.1,5.4-7.2,9.3-9.5c3.9-2.3,8.2-3.4,13-3.4
				c4.7,0,9,1.1,13,3.4c3.9,2.3,7,5.4,9.3,9.5c2.3,4.1,3.4,8.6,3.4,13.7C461.6,74,460.4,78.5,458.2,82.5z M450.2,59.6
				c-1.5-2.8-3.4-4.9-5.9-6.4c-2.5-1.5-5.3-2.3-8.3-2.3c-3,0-5.8,0.8-8.3,2.3c-2.5,1.5-4.5,3.7-5.9,6.4c-1.5,2.8-2.2,5.9-2.2,9.4
				c0,3.4,0.7,6.5,2.2,9.2c1.5,2.7,3.4,4.8,5.9,6.4c2.5,1.5,5.3,2.3,8.3,2.3c3,0,5.8-0.8,8.3-2.3c2.5-1.5,4.5-3.6,5.9-6.4
				c1.5-2.7,2.2-5.8,2.2-9.2C452.3,65.5,451.6,62.3,450.2,59.6z"/>
			<linearGradient id="SVGID_3_" gradientUnits="userSpaceOnUse" x1="358.8921" y1="25.6732" x2="580.2878" y2="86.8322">
				<stop  offset="0" style="stop-color:#90B43E"/>
				<stop  offset="1" style="stop-color:#094479"/>
			</linearGradient>
			<path fill="url(#SVGID_3_)" d="M480.9,93c-0.9,0.9-2,1.4-3.3,1.4c-1.3,0-2.4-0.5-3.3-1.4c-0.9-0.9-1.3-2-1.3-3.3V27.2
				c0-1.3,0.5-2.4,1.4-3.3c0.9-0.9,2-1.4,3.3-1.4c1.3,0,2.4,0.5,3.3,1.4c0.9,0.9,1.3,2,1.3,3.3v62.5C482.2,91,481.8,92.1,480.9,93z"
				/>
			<linearGradient id="SVGID_4_" gradientUnits="userSpaceOnUse" x1="359.621" y1="23.0345" x2="581.0168" y2="84.1935">
				<stop  offset="0" style="stop-color:#90B43E"/>
				<stop  offset="1" style="stop-color:#094479"/>
			</linearGradient>
			<path fill="url(#SVGID_4_)" d="M541.4,44.2c0.9,0.9,1.3,2,1.3,3.4v42.1c0,1.3-0.4,2.4-1.3,3.3c-0.9,0.9-2,1.4-3.3,1.4
				c-1.4,0-2.5-0.4-3.3-1.3c-0.8-0.9-1.3-2-1.3-3.3v-2.5c-1.7,2.3-4,4.2-6.9,5.8c-2.9,1.6-6.1,2.4-9.4,2.4c-4.4,0-8.4-1.1-12-3.4
				c-3.6-2.3-6.4-5.4-8.4-9.5c-2-4-3.1-8.6-3.1-13.6c0-5,1-9.6,3.1-13.6c2-4,4.8-7.2,8.4-9.5c3.6-2.3,7.5-3.4,11.7-3.4
				c3.4,0,6.6,0.7,9.6,2.1c2.9,1.4,5.3,3.2,7,5.4v-2.3c0-1.4,0.4-2.5,1.3-3.4c0.8-0.9,1.9-1.4,3.3-1.4
				C539.4,42.8,540.5,43.3,541.4,44.2z M526.4,84.5c2.4-1.6,4.2-3.7,5.5-6.4c1.3-2.7,2-5.8,2-9.2c0-3.4-0.7-6.4-2-9.1
				c-1.3-2.7-3.2-4.9-5.5-6.5c-2.4-1.6-5.1-2.4-8.1-2.4c-3,0-5.7,0.8-8.1,2.3c-2.4,1.6-4.2,3.7-5.5,6.4c-1.3,2.7-2,5.8-2,9.2
				c0,3.4,0.7,6.5,2,9.2c1.3,2.7,3.2,4.9,5.5,6.4c2.4,1.6,5.1,2.3,8.1,2.3C521.3,86.8,524,86,526.4,84.5z"/>
			<linearGradient id="SVGID_5_" gradientUnits="userSpaceOnUse" x1="363.0109" y1="10.7631" x2="584.4066" y2="71.9222">
				<stop  offset="0" style="stop-color:#90B43E"/>
				<stop  offset="1" style="stop-color:#094479"/>
			</linearGradient>
			<path fill="url(#SVGID_5_)" d="M586.1,43.7c1.2,0.9,1.8,2,1.8,3.3c0,1.6-0.4,2.7-1.2,3.5c-0.8,0.8-1.8,1.2-3,1.2
				c-0.6,0-1.5-0.2-2.6-0.6c-1.4-0.5-2.4-0.7-3.2-0.7c-2,0-4,0.7-5.9,2.1c-1.9,1.4-3.5,3.3-4.7,5.7c-1.2,2.4-1.8,5.1-1.8,8.1v23.4
				c0,1.3-0.4,2.4-1.3,3.3c-0.9,0.9-2,1.4-3.3,1.4s-2.5-0.4-3.3-1.3c-0.8-0.9-1.3-2-1.3-3.3V48.2c0-1.3,0.4-2.4,1.3-3.3
				c0.9-0.9,2-1.4,3.3-1.4c1.4,0,2.5,0.5,3.3,1.4c0.9,0.9,1.3,2,1.3,3.3v5c1.4-3.2,3.6-5.7,6.4-7.7c2.8-2,6.1-3,9.7-3.1
				C583.4,42.4,584.9,42.8,586.1,43.7z"/>
		</g>
		<g>
			<path d="M260.9,121.7v1.7h-10v-14.8h9.9v1.7h-8v4.8h6.9v1.6h-6.9v5.1H260.9z"/>
			<path d="M267.4,112.1v11.3h-1.9v-14.8h1.5l9.2,11.5v-11.5h1.9v14.8h-1.6L267.4,112.1z"/>
			<path d="M293.7,121.7v1.7h-10v-14.8h9.9v1.7h-8v4.8h6.9v1.6h-6.9v5.1H293.7z"/>
			<path d="M298.4,123.4v-14.8h6.3c0.7,0,1.3,0.1,1.8,0.4c0.5,0.3,1,0.6,1.4,1.1c0.4,0.5,0.7,1,0.9,1.5c0.2,0.6,0.3,1.1,0.3,1.7
				c0,0.5-0.1,1-0.2,1.5s-0.4,0.9-0.6,1.3c-0.3,0.4-0.6,0.7-1,1c-0.4,0.3-0.8,0.5-1.3,0.6l3.6,5.7h-2.1l-3.4-5.3h-3.9v5.3H298.4z
				 M300.2,116.4h4.5c0.4,0,0.7-0.1,1.1-0.2c0.3-0.2,0.6-0.4,0.8-0.7c0.2-0.3,0.4-0.6,0.5-1c0.1-0.4,0.2-0.8,0.2-1.2
				c0-0.4-0.1-0.8-0.2-1.2c-0.1-0.4-0.3-0.7-0.6-1c-0.2-0.3-0.5-0.5-0.9-0.7c-0.3-0.2-0.7-0.2-1-0.2h-4.4V116.4z"/>
			<path d="M324.6,121.4c-1.3,1.4-2.8,2.1-4.5,2.1c-1,0-1.9-0.2-2.7-0.6c-0.8-0.4-1.6-1-2.2-1.7c-0.6-0.7-1.1-1.5-1.4-2.4
				c-0.4-0.9-0.5-1.8-0.5-2.8c0-1,0.2-1.9,0.5-2.8c0.3-0.9,0.8-1.7,1.4-2.4c0.6-0.7,1.3-1.2,2.2-1.6c0.8-0.4,1.8-0.6,2.7-0.6
				c1.4,0,2.6,0.3,3.5,0.9c0.9,0.6,1.6,1.4,2.1,2.3l-1.4,1c-0.4-0.9-1-1.5-1.8-1.9s-1.6-0.6-2.5-0.6c-0.7,0-1.4,0.2-2,0.5
				c-0.6,0.3-1.1,0.8-1.6,1.3c-0.4,0.5-0.8,1.2-1,1.9c-0.2,0.7-0.4,1.4-0.4,2.2c0,0.8,0.1,1.5,0.4,2.2c0.3,0.7,0.6,1.3,1.1,1.9
				c0.5,0.5,1,1,1.6,1.3s1.3,0.5,2,0.5c1.6,0,3.1-0.8,4.4-2.3v-2h-3.2V116h4.8v7.4h-1.6V121.4z"/>
			<path d="M331.1,123.4v-14.8h1.9v14.8H331.1z M332.3,106.8l-1.2-0.4l1.2-2.1h1.8L332.3,106.8z"/>
			<path d="M343.1,108.6h1.6l6,14.8h-2l-1.7-4.3h-6.2l-1.7,4.3h-2L343.1,108.6z M346.5,117.6l-2.7-6.8l-2.7,6.8H346.5z"/>
			<path d="M370.2,111.7c-0.2-0.2-0.4-0.4-0.7-0.6c-0.3-0.2-0.6-0.3-0.9-0.5c-0.3-0.1-0.7-0.3-1.1-0.4c-0.4-0.1-0.8-0.1-1.3-0.1
				c-1.2,0-2,0.2-2.5,0.6c-0.5,0.4-0.8,1-0.8,1.8c0,0.4,0.1,0.7,0.2,1c0.2,0.3,0.4,0.5,0.7,0.7c0.3,0.2,0.7,0.4,1.2,0.5
				c0.5,0.1,1.1,0.3,1.7,0.4c0.8,0.2,1.5,0.4,2.1,0.6c0.6,0.2,1.1,0.5,1.6,0.8c0.4,0.3,0.8,0.7,1,1.2c0.2,0.5,0.3,1,0.3,1.7
				c0,0.7-0.1,1.3-0.4,1.8c-0.3,0.5-0.7,1-1.1,1.3c-0.5,0.3-1,0.6-1.7,0.8c-0.7,0.2-1.4,0.2-2.1,0.2c-1.1,0-2.2-0.2-3.2-0.5
				c-1-0.4-1.9-0.9-2.8-1.6l0.9-1.6c0.2,0.2,0.5,0.5,0.9,0.7c0.4,0.2,0.8,0.4,1.2,0.6s0.9,0.3,1.5,0.5c0.5,0.1,1.1,0.2,1.6,0.2
				c1.1,0,1.9-0.2,2.5-0.6c0.6-0.4,0.9-0.9,0.9-1.7c0-0.4-0.1-0.8-0.3-1.1c-0.2-0.3-0.5-0.5-0.8-0.7c-0.4-0.2-0.8-0.4-1.3-0.6
				c-0.5-0.2-1.1-0.3-1.8-0.5c-0.7-0.2-1.4-0.4-2-0.6c-0.6-0.2-1-0.5-1.4-0.8c-0.4-0.3-0.7-0.6-0.9-1.1s-0.3-0.9-0.3-1.5
				c0-0.7,0.1-1.3,0.4-1.9c0.3-0.5,0.6-1,1.1-1.4c0.5-0.4,1-0.7,1.7-0.8c0.7-0.2,1.4-0.3,2.1-0.3c1,0,1.9,0.2,2.7,0.5
				c0.8,0.3,1.5,0.7,2.1,1.2L370.2,111.7z"/>
			<path d="M382.3,121.8c0.9,0,1.6-0.2,2.1-0.5c0.6-0.3,1-0.8,1.4-1.3c0.3-0.5,0.6-1.1,0.7-1.8c0.1-0.7,0.2-1.4,0.2-2.1v-7.5h1.9
				v7.5c0,1-0.1,1.9-0.3,2.8c-0.2,0.9-0.6,1.7-1.1,2.4c-0.5,0.7-1.1,1.2-1.9,1.6s-1.8,0.6-2.9,0.6c-1.2,0-2.2-0.2-3-0.6
				c-0.8-0.4-1.5-1-1.9-1.7c-0.5-0.7-0.8-1.5-1.1-2.4c-0.2-0.9-0.3-1.8-0.3-2.8v-7.5h1.9v7.5c0,0.7,0.1,1.4,0.2,2.1
				c0.1,0.7,0.4,1.3,0.7,1.8c0.3,0.5,0.8,1,1.4,1.3C380.8,121.7,381.5,121.8,382.3,121.8z"/>
			<path d="M402.7,111.7c-0.2-0.2-0.4-0.4-0.7-0.6c-0.3-0.2-0.6-0.3-0.9-0.5c-0.3-0.1-0.7-0.3-1.1-0.4c-0.4-0.1-0.8-0.1-1.3-0.1
				c-1.2,0-2,0.2-2.5,0.6c-0.5,0.4-0.8,1-0.8,1.8c0,0.4,0.1,0.7,0.2,1c0.2,0.3,0.4,0.5,0.7,0.7c0.3,0.2,0.7,0.4,1.2,0.5
				c0.5,0.1,1.1,0.3,1.7,0.4c0.8,0.2,1.5,0.4,2.1,0.6c0.6,0.2,1.1,0.5,1.6,0.8c0.4,0.3,0.8,0.7,1,1.2c0.2,0.5,0.3,1,0.3,1.7
				c0,0.7-0.1,1.3-0.4,1.8c-0.3,0.5-0.7,1-1.1,1.3c-0.5,0.3-1,0.6-1.7,0.8c-0.7,0.2-1.4,0.2-2.1,0.2c-1.1,0-2.2-0.2-3.2-0.5
				c-1-0.4-1.9-0.9-2.8-1.6l0.9-1.6c0.2,0.2,0.5,0.5,0.9,0.7c0.4,0.2,0.8,0.4,1.2,0.6s0.9,0.3,1.5,0.5c0.5,0.1,1.1,0.2,1.6,0.2
				c1.1,0,1.9-0.2,2.5-0.6c0.6-0.4,0.9-0.9,0.9-1.7c0-0.4-0.1-0.8-0.3-1.1c-0.2-0.3-0.5-0.5-0.8-0.7c-0.4-0.2-0.8-0.4-1.3-0.6
				c-0.5-0.2-1.1-0.3-1.8-0.5c-0.7-0.2-1.4-0.4-2-0.6c-0.6-0.2-1-0.5-1.4-0.8c-0.4-0.3-0.7-0.6-0.9-1.1c-0.2-0.4-0.3-0.9-0.3-1.5
				c0-0.7,0.1-1.3,0.4-1.9c0.3-0.5,0.6-1,1.1-1.4c0.5-0.4,1-0.7,1.7-0.8c0.7-0.2,1.4-0.3,2.1-0.3c1,0,1.9,0.2,2.7,0.5
				c0.8,0.3,1.5,0.7,2.1,1.2L402.7,111.7z"/>
			<path d="M419.5,110.3h-5.1v13.1h-1.9v-13.1h-5.1v-1.7h12.1V110.3z"/>
			<path d="M433.7,121.7v1.7h-10v-14.8h9.9v1.7h-8v4.8h6.9v1.6h-6.9v5.1H433.7z"/>
			<path d="M440.2,112.1v11.3h-1.9v-14.8h1.5l9.2,11.5v-11.5h1.9v14.8h-1.6L440.2,112.1z"/>
			<path d="M467.2,110.3h-5.1v13.1h-1.9v-13.1h-5.1v-1.7h12.1V110.3z"/>
			<path d="M474.5,108.6h1.6l6,14.8h-2l-1.7-4.3h-6.2l-1.7,4.3h-2L474.5,108.6z M477.9,117.6l-2.7-6.8l-2.7,6.8H477.9z"/>
			<path d="M497.5,119.6c0,0.6-0.1,1.1-0.3,1.6c-0.2,0.5-0.5,0.9-0.9,1.2c-0.4,0.3-0.9,0.6-1.4,0.8c-0.5,0.2-1.1,0.3-1.7,0.3h-7
				v-14.8h7.4c0.5,0,1,0.1,1.4,0.3c0.4,0.2,0.8,0.5,1.1,0.9c0.3,0.4,0.5,0.8,0.7,1.2c0.2,0.5,0.2,0.9,0.2,1.4c0,0.7-0.2,1.4-0.6,2
				c-0.4,0.6-0.9,1.1-1.6,1.4c0.8,0.3,1.5,0.7,2,1.4C497.3,117.9,497.5,118.7,497.5,119.6z M488,110.2v4.9h4.7
				c0.3,0,0.6-0.1,0.9-0.2c0.3-0.1,0.5-0.3,0.7-0.5c0.2-0.2,0.4-0.5,0.5-0.8c0.1-0.3,0.2-0.6,0.2-0.9c0-0.3-0.1-0.7-0.2-1
				c-0.1-0.3-0.3-0.6-0.4-0.8c-0.2-0.2-0.4-0.4-0.7-0.5c-0.3-0.1-0.6-0.2-0.9-0.2H488z M495.6,119.3c0-0.3-0.1-0.7-0.2-1
				c-0.1-0.3-0.3-0.6-0.5-0.8c-0.2-0.2-0.4-0.4-0.7-0.6c-0.3-0.1-0.6-0.2-0.9-0.2H488v5.1h5.1c0.3,0,0.7-0.1,1-0.2
				c0.3-0.1,0.5-0.3,0.8-0.6c0.2-0.2,0.4-0.5,0.5-0.8C495.5,119.9,495.6,119.6,495.6,119.3z"/>
			<path d="M502.2,123.4v-14.8h1.9v13.1h8.2v1.7H502.2z"/>
			<path d="M526.5,121.7v1.7h-10v-14.8h9.9v1.7h-8v4.8h6.9v1.6h-6.9v5.1H526.5z"/>
		</g>
	</g>
	<g>
		<linearGradient id="SVGID_6_" gradientUnits="userSpaceOnUse" x1="112.2581" y1="103.6662" x2="112.2581" y2="37.9514">
			<stop  offset="0" style="stop-color:#93C022"/>
			<stop  offset="0.95" style="stop-color:#D8E18A"/>
			<stop  offset="1" style="stop-color:#E9E88A"/>
		</linearGradient>
		<path fill-rule="evenodd" clip-rule="evenodd" fill="url(#SVGID_6_)" d="M154.2,79.1c5.2-2.9,9.7-7.2,13.3-12.5l-4.8-3.8l3.2-5.2
			c-5.2-3.7-10.9-6.2-16.8-7.2c2.1-5.6,2.8-11.8,2.2-18.2l-6.1,0.1l-0.9-6c-6.4,0.5-12.4,2.2-17.5,5.3c-2-5.7-5.4-10.9-10-15.3
			l-4.6,4l-4.6-4c-4.6,4.5-8,9.7-10,15.3c-5.1-3.1-11.1-4.8-17.5-5.3l-0.9,6l-6.1-0.1c-0.6,6.4,0.1,12.6,2.2,18.2
			c-5.9,0.9-11.6,3.4-16.8,7.2l3.2,5.2l-4.8,3.8c3.6,5.3,8.1,9.6,13.4,12.5c-3.9,4.5-6.7,10.1-8.3,16.3l5.8,1.9l-1.2,6
			c6.2,1.7,12.4,2.1,18.3,1c-0.1,6,1.4,12.1,4.1,17.8l5.7-2.2l2.9,5.4c5.8-2.6,10.9-6.3,14.6-11c3.8,4.7,8.8,8.4,14.6,11l2.9-5.4
			l5.7,2.2c2.8-5.8,4.2-11.8,4.2-17.8c5.9,1.1,12.1,0.7,18.3-1l-1.2-6l5.8-2C160.9,89.2,158.1,83.6,154.2,79.1L154.2,79.1z
			 M112.3,71.7"/>
		<linearGradient id="SVGID_7_" gradientUnits="userSpaceOnUse" x1="88.7594" y1="47.5618" x2="135.7637" y2="94.5662">
			<stop  offset="0" style="stop-color:#90B43E"/>
			<stop  offset="1" style="stop-color:#094479"/>
		</linearGradient>
		<path fill-rule="evenodd" clip-rule="evenodd" fill="url(#SVGID_7_)" d="M154.2,79.1c5.2-2.9,9.7-7.2,13.3-12.5l-4.8-3.8l3.2-5.2
			c-5.2-3.7-10.9-6.2-16.8-7.2c2.1-5.6,2.8-11.8,2.2-18.2l-6.1,0.1l-0.9-6c-6.4,0.5-12.4,2.2-17.5,5.3c-2-5.7-5.4-10.9-10-15.3
			l-4.6,4l-4.6-4c-4.6,4.5-8,9.7-10,15.3c-5.1-3.1-11.1-4.8-17.5-5.3l-0.9,6l-6.1-0.1c-0.6,6.4,0.1,12.6,2.2,18.2
			c-5.9,0.9-11.6,3.4-16.8,7.2l3.2,5.2l-4.8,3.8c3.6,5.3,8.1,9.6,13.4,12.5c-3.9,4.5-6.7,10.1-8.3,16.3l5.8,1.9l-1.2,6
			c6.2,1.7,12.4,2.1,18.3,1c-0.1,6,1.4,12.1,4.1,17.8l5.7-2.2l2.9,5.4c5.8-2.6,10.9-6.3,14.6-11c3.8,4.7,8.8,8.4,14.6,11l2.9-5.4
			l5.7,2.2c2.8-5.8,4.2-11.8,4.2-17.8c5.9,1.1,12.1,0.7,18.3-1l-1.2-6l5.8-2C160.9,89.2,158.1,83.6,154.2,79.1L154.2,79.1z
			 M112.3,71.7"/>
		<path fill-rule="evenodd" clip-rule="evenodd" fill="#FFFFFF" d="M143.7,82.8c3.8-0.7,7.3-1.9,10.5-3.7c-2.4-2.8-5.3-5.2-8.6-7.1
			c-3.9-2.3-8-3.6-12.2-4c3.8-1.9,7.2-4.5,10.1-8c2.4-2.9,4.3-6.2,5.6-9.6c-3.7-0.6-7.4-0.6-11.2,0.1c-4.4,0.8-8.4,2.4-11.9,4.8
			c1.7-3.9,2.6-8,2.6-12.6c0-3.8-0.6-7.5-1.9-11c-3.2,1.9-6.1,4.3-8.5,7.2c-2.9,3.5-4.9,7.3-6.1,11.3c-1.2-4.1-3.2-7.8-6.1-11.3
			c-2.4-2.9-5.3-5.3-8.5-7.2c-1.2,3.5-1.9,7.2-1.9,11c0,4.5,0.9,8.7,2.6,12.6c-3.5-2.3-7.5-4-11.9-4.8c-3.7-0.7-7.5-0.7-11.2-0.1
			c1.3,3.5,3.2,6.7,5.6,9.6c2.9,3.5,6.3,6.1,10.1,8c-4.2,0.5-8.3,1.8-12.2,4c-3.3,1.9-6.2,4.3-8.6,7.1c3.2,1.8,6.8,3.1,10.5,3.7
			c4.5,0.8,8.7,0.6,12.8-0.4c-2.9,3.1-5.2,6.7-6.8,10.9c-1.3,3.6-1.9,7.3-2,11c3.6-0.7,7.2-2,10.5-3.9c3.9-2.3,7.1-5.2,9.6-8.6
			c-0.3,4.2,0.3,8.5,1.8,12.7c1.3,3.6,3.2,6.8,5.5,9.7c2.3-2.9,4.2-6.1,5.5-9.7c1.5-4.3,2.1-8.5,1.8-12.7c2.5,3.4,5.7,6.3,9.6,8.6
			c3.3,1.9,6.8,3.2,10.5,3.9c-0.1-3.7-0.7-7.4-2-11c-1.6-4.3-3.8-7.9-6.8-10.9C135,83.4,139.3,83.6,143.7,82.8L143.7,82.8z
			 M112.3,71.7"/>
		<path fill-rule="evenodd" clip-rule="evenodd" fill="#FFEC00" d="M124.9,77c1.5-0.3,2.9-0.8,4.2-1.5c-1-1.1-2.1-2.1-3.5-2.9
			c-1.6-0.9-3.2-1.4-4.9-1.6c1.5-0.8,2.9-1.8,4.1-3.2c1-1.2,1.7-2.5,2.3-3.9c-1.5-0.2-3-0.2-4.5,0c-1.8,0.3-3.4,1-4.8,1.9
			c0.7-1.6,1.1-3.2,1.1-5.1c0-1.5-0.3-3-0.8-4.4c-1.3,0.8-2.4,1.7-3.4,2.9c-1.2,1.4-2,2.9-2.5,4.6c-0.5-1.6-1.3-3.2-2.4-4.6
			c-1-1.2-2.1-2.1-3.4-2.9c-0.5,1.4-0.8,2.9-0.8,4.4c0,1.8,0.4,3.5,1.1,5.1c-1.4-0.9-3-1.6-4.8-1.9c-1.5-0.3-3-0.3-4.5,0
			c0.5,1.4,1.3,2.7,2.3,3.9c1.2,1.4,2.5,2.4,4.1,3.2c-1.7,0.2-3.3,0.7-4.9,1.6c-1.3,0.8-2.5,1.7-3.5,2.9c1.3,0.7,2.7,1.2,4.2,1.5
			c1.8,0.3,3.5,0.2,5.2-0.2c-1.2,1.2-2.1,2.7-2.7,4.4c-0.5,1.4-0.8,2.9-0.8,4.4c1.5-0.3,2.9-0.8,4.2-1.6c1.6-0.9,2.9-2.1,3.9-3.5
			c-0.1,1.7,0.1,3.4,0.7,5.1c0.5,1.4,1.3,2.7,2.2,3.9c0.9-1.2,1.7-2.5,2.2-3.9c0.6-1.7,0.9-3.4,0.7-5.1c1,1.4,2.3,2.5,3.9,3.5
			c1.3,0.8,2.7,1.3,4.2,1.6c0-1.5-0.3-3-0.8-4.4c-0.6-1.7-1.5-3.2-2.7-4.4C121.4,77.2,123.1,77.3,124.9,77L124.9,77z M112.3,72.5"/>
	</g>
</g>
</svg>
